<svg xmlns="http://www.w3.org/2000/svg" viewBox="7069.96240234375 4261.95458984375 1384.669044494629 590.3208999633789" data-guides="{&quot;vertical&quot;:[],&quot;horizontal&quot;:[]}"> <path fill="transparent" stroke="#000000" fill-opacity="1" stroke-width="1.7" stroke-opacity="1" id="tSvg14adad5efe" title="Path 1" d="M 7072.919490382091 4345.019504124307L 7322.000848320212 4345.019504124307 A 10 10 0 0 1 7329.2503262568725 4348.131465967773L 7433.717809709822 4458.080728614103"></path> <path fill="transparent" stroke="#000000" fill-opacity="1" stroke-width="1.7" stroke-opacity="1" id="tSvg3af831f302" title="Path 2" d="M 7071.662681858682 4526.356074352398 C 7071.662681858682 4526.356074352398 7432.460834919906 4526.356074352398 7432.460834919906 4526.356074352398"></path> <path fill="transparent" stroke="#000000" fill-opacity="1" stroke-width="1.7" stroke-opacity="1" id="tSvg195cbc1b3cc" title="Path 3" d="M 7078.31417345532 4671.007935096695L 7413.355545034471 4671.007935096695 A 10 10 0 0 1 7420.426612846337 4673.9368672848295L 7436.022762290855 4689.533016729348"></path> <path fill="transparent" stroke="#000000" fill-opacity="1" stroke-width="1.7" stroke-opacity="1" id="tSvgc358780aec" title="Path 4" d="M 7123.318360129991 4850.575762227548L 7358.888207800764 4850.575762227548 A 10 10 0 0 0 7366.662866689366 4846.865013309027L 7430.911231078369 4767.44234265972"></path> <path fill="transparent" stroke="#000000" fill-opacity="1" stroke-width="1.7" stroke-opacity="1" id="tSvg78acb7c2ba" title="Path 5" d="M 7914.441001186413 4366.740061747355 C 7914.441001186413 4366.740061747355 7914.441001186413 4494.765271831389 7914.441001186413 4494.765271831389"></path> <path fill="transparent" stroke="#000000" fill-opacity="1" stroke-width="1.7" stroke-opacity="1" id="tSvg10e4cebeac3" title="Path 6" d="M 8416.353196264443 4459.8493054448345L 8416.353196264443 4273.654827653718 A 10 10 0 0 1 8426.353196264443 4263.654827653718L 8452.931827717024 4263.654827653718"></path> <path fill="transparent" stroke="#000000" fill-opacity="1" stroke-width="1.7" stroke-opacity="1" id="tSvg82b4a22cfb" title="Path 7" d="M 7683.117569613784 4609.487831255159 C 7683.117569613784 4609.487831255159 7683.117569613784 4848.912099562481 7683.117569613784 4848.912099562481"></path> <defs></defs> </svg>